<svg xmlns="http://www.w3.org/2000/svg" xmlns:xlink="http://www.w3.org/1999/xlink" width="500" zoomAndPan="magnify" viewBox="0 0 375 374.999991" height="500" preserveAspectRatio="xMidYMid meet" version="1.0"><defs><g/><clipPath id="098483ef59"><path d="M 187.5 0 C 83.945312 0 0 83.945312 0 187.5 C 0 291.054688 83.945312 375 187.5 375 C 291.054688 375 375 291.054688 375 187.5 C 375 83.945312 291.054688 0 187.5 0 Z M 187.5 0 " clip-rule="nonzero"/></clipPath></defs><g clip-path="url(#098483ef59)"><rect x="-37.5" width="450" fill="#2763ea" y="-37.499999" height="449.999989" fill-opacity="1"/></g><g fill="#ffffff" fill-opacity="1"><g transform="translate(59.718752, 174.749989)"><g><path d="M 21.078125 0 L 19 -6.796875 L 8.59375 -6.796875 L 6.53125 0 L 0 0 L 10.078125 -28.671875 L 17.484375 -28.671875 L 27.59375 0 Z M 17.5625 -11.875 C 15.644531 -18.03125 14.566406 -21.507812 14.328125 -22.3125 C 14.085938 -23.125 13.914062 -23.765625 13.8125 -24.234375 C 13.382812 -22.566406 12.15625 -18.445312 10.125 -11.875 Z M 17.5625 -11.875 "/></g></g></g><g fill="#ffffff" fill-opacity="1"><g transform="translate(87.313717, 174.749989)"><g><path d="M 18.59375 0 L 17.796875 -2.796875 L 17.484375 -2.796875 C 16.847656 -1.773438 15.941406 -0.988281 14.765625 -0.4375 C 13.597656 0.113281 12.265625 0.390625 10.765625 0.390625 C 8.203125 0.390625 6.269531 -0.296875 4.96875 -1.671875 C 3.664062 -3.046875 3.015625 -5.019531 3.015625 -7.59375 L 3.015625 -21.84375 L 8.96875 -21.84375 L 8.96875 -9.078125 C 8.96875 -7.503906 9.242188 -6.320312 9.796875 -5.53125 C 10.359375 -4.75 11.253906 -4.359375 12.484375 -4.359375 C 14.148438 -4.359375 15.351562 -4.914062 16.09375 -6.03125 C 16.832031 -7.144531 17.203125 -8.988281 17.203125 -11.5625 L 17.203125 -21.84375 L 23.171875 -21.84375 L 23.171875 0 Z M 18.59375 0 "/></g></g></g><g fill="#ffffff" fill-opacity="1"><g transform="translate(113.60021, 174.749989)"><g><path d="M 12.328125 -4.359375 C 13.367188 -4.359375 14.617188 -4.585938 16.078125 -5.046875 L 16.078125 -0.609375 C 14.585938 0.0546875 12.765625 0.390625 10.609375 0.390625 C 8.222656 0.390625 6.484375 -0.207031 5.390625 -1.40625 C 4.304688 -2.613281 3.765625 -4.425781 3.765625 -6.84375 L 3.765625 -17.359375 L 0.921875 -17.359375 L 0.921875 -19.890625 L 4.203125 -21.875 L 5.921875 -26.484375 L 9.734375 -26.484375 L 9.734375 -21.84375 L 15.84375 -21.84375 L 15.84375 -17.359375 L 9.734375 -17.359375 L 9.734375 -6.84375 C 9.734375 -5.988281 9.96875 -5.359375 10.4375 -4.953125 C 10.914062 -4.554688 11.546875 -4.359375 12.328125 -4.359375 Z M 12.328125 -4.359375 "/></g></g></g><g fill="#ffffff" fill-opacity="1"><g transform="translate(130.9618, 174.749989)"><g><path d="M 7.875 -10.953125 C 7.875 -8.796875 8.226562 -7.160156 8.9375 -6.046875 C 9.644531 -4.941406 10.800781 -4.390625 12.40625 -4.390625 C 13.988281 -4.390625 15.128906 -4.941406 15.828125 -6.046875 C 16.523438 -7.148438 16.875 -8.785156 16.875 -10.953125 C 16.875 -13.117188 16.519531 -14.738281 15.8125 -15.8125 C 15.113281 -16.894531 13.960938 -17.4375 12.359375 -17.4375 C 10.773438 -17.4375 9.628906 -16.898438 8.921875 -15.828125 C 8.222656 -14.753906 7.875 -13.128906 7.875 -10.953125 Z M 22.96875 -10.953125 C 22.96875 -7.398438 22.03125 -4.617188 20.15625 -2.609375 C 18.28125 -0.609375 15.671875 0.390625 12.328125 0.390625 C 10.234375 0.390625 8.382812 -0.0664062 6.78125 -0.984375 C 5.175781 -1.898438 3.941406 -3.21875 3.078125 -4.9375 C 2.222656 -6.65625 1.796875 -8.660156 1.796875 -10.953125 C 1.796875 -14.523438 2.726562 -17.300781 4.59375 -19.28125 C 6.457031 -21.257812 9.070312 -22.25 12.4375 -22.25 C 14.539062 -22.25 16.390625 -21.789062 17.984375 -20.875 C 19.585938 -19.96875 20.816406 -18.660156 21.671875 -16.953125 C 22.535156 -15.242188 22.96875 -13.242188 22.96875 -10.953125 Z M 22.96875 -10.953125 "/></g></g></g><g fill="#ffffff" fill-opacity="1"><g transform="translate(155.725005, 174.749989)"><g/></g></g><g fill="#ffffff" fill-opacity="1"><g transform="translate(166.114615, 174.749989)"><g><path d="M 14.4375 -16.03125 L 25.765625 -16.03125 L 25.765625 -1.234375 C 23.929688 -0.628906 22.203125 -0.207031 20.578125 0.03125 C 18.953125 0.269531 17.296875 0.390625 15.609375 0.390625 C 11.296875 0.390625 8.003906 -0.875 5.734375 -3.40625 C 3.460938 -5.9375 2.328125 -9.570312 2.328125 -14.3125 C 2.328125 -18.925781 3.644531 -22.519531 6.28125 -25.09375 C 8.914062 -27.675781 12.570312 -28.96875 17.25 -28.96875 C 20.175781 -28.96875 23 -28.378906 25.71875 -27.203125 L 23.71875 -22.359375 C 21.632812 -23.398438 19.460938 -23.921875 17.203125 -23.921875 C 14.585938 -23.921875 12.492188 -23.039062 10.921875 -21.28125 C 9.347656 -19.53125 8.5625 -17.171875 8.5625 -14.203125 C 8.5625 -11.097656 9.191406 -8.726562 10.453125 -7.09375 C 11.722656 -5.46875 13.570312 -4.65625 16 -4.65625 C 17.257812 -4.65625 18.539062 -4.785156 19.84375 -5.046875 L 19.84375 -11 L 14.4375 -11 Z M 14.4375 -16.03125 "/></g></g></g><g fill="#ffffff" fill-opacity="1"><g transform="translate(195.076634, 174.749989)"><g><path d="M 12.171875 -18.015625 C 10.910156 -18.015625 9.921875 -17.613281 9.203125 -16.8125 C 8.484375 -16.007812 8.070312 -14.875 7.96875 -13.40625 L 16.328125 -13.40625 C 16.304688 -14.875 15.921875 -16.007812 15.171875 -16.8125 C 14.429688 -17.613281 13.429688 -18.015625 12.171875 -18.015625 Z M 13.015625 0.390625 C 9.492188 0.390625 6.742188 -0.578125 4.765625 -2.515625 C 2.785156 -4.460938 1.796875 -7.210938 1.796875 -10.765625 C 1.796875 -14.421875 2.707031 -17.25 4.53125 -19.25 C 6.363281 -21.25 8.894531 -22.25 12.125 -22.25 C 15.21875 -22.25 17.625 -21.367188 19.34375 -19.609375 C 21.0625 -17.847656 21.921875 -15.421875 21.921875 -12.328125 L 21.921875 -9.4375 L 7.828125 -9.4375 C 7.898438 -7.738281 8.40625 -6.414062 9.34375 -5.46875 C 10.28125 -4.519531 11.59375 -4.046875 13.28125 -4.046875 C 14.59375 -4.046875 15.832031 -4.179688 17 -4.453125 C 18.175781 -4.722656 19.40625 -5.160156 20.6875 -5.765625 L 20.6875 -1.15625 C 19.644531 -0.632812 18.53125 -0.25 17.34375 0 C 16.15625 0.257812 14.710938 0.390625 13.015625 0.390625 Z M 13.015625 0.390625 "/></g></g></g><g fill="#ffffff" fill-opacity="1"><g transform="translate(218.707136, 174.749989)"><g><path d="M 18.359375 -6.484375 C 18.359375 -4.242188 17.578125 -2.535156 16.015625 -1.359375 C 14.460938 -0.191406 12.140625 0.390625 9.046875 0.390625 C 7.453125 0.390625 6.09375 0.28125 4.96875 0.0625 C 3.851562 -0.144531 2.8125 -0.457031 1.84375 -0.875 L 1.84375 -5.796875 C 2.945312 -5.273438 4.191406 -4.835938 5.578125 -4.484375 C 6.960938 -4.140625 8.179688 -3.96875 9.234375 -3.96875 C 11.398438 -3.96875 12.484375 -4.59375 12.484375 -5.84375 C 12.484375 -6.3125 12.335938 -6.691406 12.046875 -6.984375 C 11.765625 -7.273438 11.269531 -7.601562 10.5625 -7.96875 C 9.863281 -8.34375 8.925781 -8.78125 7.75 -9.28125 C 6.070312 -9.976562 4.835938 -10.625 4.046875 -11.21875 C 3.265625 -11.820312 2.691406 -12.507812 2.328125 -13.28125 C 1.972656 -14.0625 1.796875 -15.019531 1.796875 -16.15625 C 1.796875 -18.09375 2.546875 -19.59375 4.046875 -20.65625 C 5.554688 -21.71875 7.691406 -22.25 10.453125 -22.25 C 13.078125 -22.25 15.632812 -21.675781 18.125 -20.53125 L 16.328125 -16.234375 C 15.234375 -16.703125 14.210938 -17.082031 13.265625 -17.375 C 12.316406 -17.675781 11.347656 -17.828125 10.359375 -17.828125 C 8.597656 -17.828125 7.71875 -17.351562 7.71875 -16.40625 C 7.71875 -15.875 8 -15.410156 8.5625 -15.015625 C 9.132812 -14.628906 10.375 -14.050781 12.28125 -13.28125 C 13.988281 -12.59375 15.238281 -11.945312 16.03125 -11.34375 C 16.832031 -10.75 17.421875 -10.0625 17.796875 -9.28125 C 18.171875 -8.5 18.359375 -7.566406 18.359375 -6.484375 Z M 18.359375 -6.484375 "/></g></g></g><g fill="#ffffff" fill-opacity="1"><g transform="translate(238.588006, 174.749989)"><g><path d="M 12.328125 -4.359375 C 13.367188 -4.359375 14.617188 -4.585938 16.078125 -5.046875 L 16.078125 -0.609375 C 14.585938 0.0546875 12.765625 0.390625 10.609375 0.390625 C 8.222656 0.390625 6.484375 -0.207031 5.390625 -1.40625 C 4.304688 -2.613281 3.765625 -4.425781 3.765625 -6.84375 L 3.765625 -17.359375 L 0.921875 -17.359375 L 0.921875 -19.890625 L 4.203125 -21.875 L 5.921875 -26.484375 L 9.734375 -26.484375 L 9.734375 -21.84375 L 15.84375 -21.84375 L 15.84375 -17.359375 L 9.734375 -17.359375 L 9.734375 -6.84375 C 9.734375 -5.988281 9.96875 -5.359375 10.4375 -4.953125 C 10.914062 -4.554688 11.546875 -4.359375 12.328125 -4.359375 Z M 12.328125 -4.359375 "/></g></g></g><g fill="#ffffff" fill-opacity="1"><g transform="translate(255.949596, 174.749989)"><g><path d="M 17 0 L 15.84375 -2.96875 L 15.6875 -2.96875 C 14.6875 -1.707031 13.65625 -0.832031 12.59375 -0.34375 C 11.53125 0.144531 10.144531 0.390625 8.4375 0.390625 C 6.34375 0.390625 4.691406 -0.207031 3.484375 -1.40625 C 2.285156 -2.601562 1.6875 -4.3125 1.6875 -6.53125 C 1.6875 -8.84375 2.492188 -10.546875 4.109375 -11.640625 C 5.734375 -12.742188 8.179688 -13.359375 11.453125 -13.484375 L 15.234375 -13.59375 L 15.234375 -14.546875 C 15.234375 -16.765625 14.101562 -17.875 11.84375 -17.875 C 10.09375 -17.875 8.039062 -17.347656 5.6875 -16.296875 L 3.71875 -20.3125 C 6.226562 -21.625 9.015625 -22.28125 12.078125 -22.28125 C 15.003906 -22.28125 17.25 -21.640625 18.8125 -20.359375 C 20.375 -19.085938 21.15625 -17.148438 21.15625 -14.546875 L 21.15625 0 Z M 15.234375 -10.125 L 12.9375 -10.046875 C 11.195312 -9.992188 9.90625 -9.679688 9.0625 -9.109375 C 8.21875 -8.535156 7.796875 -7.660156 7.796875 -6.484375 C 7.796875 -4.804688 8.757812 -3.96875 10.6875 -3.96875 C 12.0625 -3.96875 13.160156 -4.363281 13.984375 -5.15625 C 14.816406 -5.945312 15.234375 -7.003906 15.234375 -8.328125 Z M 9.125 -26.296875 C 8.726562 -26.296875 8.34375 -26.117188 7.96875 -25.765625 C 7.59375 -25.421875 7.320312 -24.898438 7.15625 -24.203125 L 4.25 -24.203125 C 4.394531 -26.085938 4.929688 -27.5625 5.859375 -28.625 C 6.785156 -29.695312 8.019531 -30.234375 9.5625 -30.234375 C 10.09375 -30.234375 10.613281 -30.125 11.125 -29.90625 C 11.644531 -29.695312 12.15625 -29.460938 12.65625 -29.203125 C 13.15625 -28.953125 13.644531 -28.722656 14.125 -28.515625 C 14.613281 -28.304688 15.09375 -28.203125 15.5625 -28.203125 C 15.957031 -28.203125 16.34375 -28.367188 16.71875 -28.703125 C 17.09375 -29.046875 17.363281 -29.570312 17.53125 -30.28125 L 20.4375 -30.28125 C 20.289062 -28.382812 19.742188 -26.898438 18.796875 -25.828125 C 17.859375 -24.765625 16.632812 -24.234375 15.125 -24.234375 C 14.59375 -24.234375 14.066406 -24.34375 13.546875 -24.5625 C 13.035156 -24.78125 12.53125 -25.015625 12.03125 -25.265625 C 11.53125 -25.515625 11.035156 -25.75 10.546875 -25.96875 C 10.066406 -26.1875 9.59375 -26.296875 9.125 -26.296875 Z M 9.125 -26.296875 "/></g></g></g><g fill="#ffffff" fill-opacity="1"><g transform="translate(280.107409, 174.749989)"><g><path d="M 7.875 -10.953125 C 7.875 -8.796875 8.226562 -7.160156 8.9375 -6.046875 C 9.644531 -4.941406 10.800781 -4.390625 12.40625 -4.390625 C 13.988281 -4.390625 15.128906 -4.941406 15.828125 -6.046875 C 16.523438 -7.148438 16.875 -8.785156 16.875 -10.953125 C 16.875 -13.117188 16.519531 -14.738281 15.8125 -15.8125 C 15.113281 -16.894531 13.960938 -17.4375 12.359375 -17.4375 C 10.773438 -17.4375 9.628906 -16.898438 8.921875 -15.828125 C 8.222656 -14.753906 7.875 -13.128906 7.875 -10.953125 Z M 22.96875 -10.953125 C 22.96875 -7.398438 22.03125 -4.617188 20.15625 -2.609375 C 18.28125 -0.609375 15.671875 0.390625 12.328125 0.390625 C 10.234375 0.390625 8.382812 -0.0664062 6.78125 -0.984375 C 5.175781 -1.898438 3.941406 -3.21875 3.078125 -4.9375 C 2.222656 -6.65625 1.796875 -8.660156 1.796875 -10.953125 C 1.796875 -14.523438 2.726562 -17.300781 4.59375 -19.28125 C 6.457031 -21.257812 9.070312 -22.25 12.4375 -22.25 C 14.539062 -22.25 16.390625 -21.789062 17.984375 -20.875 C 19.585938 -19.96875 20.816406 -18.660156 21.671875 -16.953125 C 22.535156 -15.242188 22.96875 -13.242188 22.96875 -10.953125 Z M 22.96875 -10.953125 "/></g></g></g><g fill="#ffffff" fill-opacity="1"><g transform="translate(304.874986, 174.749989)"><g/></g></g><g fill="#ffffff" fill-opacity="1"><g transform="translate(140.624996, 230.249985)"><g><path d="M 9.65625 -15.125 L 11.640625 -15.125 C 13.503906 -15.125 14.894531 -15.488281 15.8125 -16.21875 C 16.738281 -16.957031 17.203125 -18.03125 17.203125 -19.4375 C 17.203125 -20.851562 16.816406 -21.898438 16.046875 -22.578125 C 15.273438 -23.253906 14.0625 -23.59375 12.40625 -23.59375 L 9.65625 -23.59375 Z M 23.328125 -19.65625 C 23.328125 -16.582031 22.363281 -14.226562 20.4375 -12.59375 C 18.519531 -10.96875 15.789062 -10.15625 12.25 -10.15625 L 9.65625 -10.15625 L 9.65625 0 L 3.59375 0 L 3.59375 -28.5625 L 12.71875 -28.5625 C 16.175781 -28.5625 18.804688 -27.8125 20.609375 -26.3125 C 22.421875 -24.820312 23.328125 -22.601562 23.328125 -19.65625 Z M 23.328125 -19.65625 "/></g></g></g><g fill="#ffffff" fill-opacity="1"><g transform="translate(165.73973, 230.249985)"><g><path d="M 9.65625 -15.875 L 11.609375 -15.875 C 13.515625 -15.875 14.921875 -16.191406 15.828125 -16.828125 C 16.742188 -17.472656 17.203125 -18.476562 17.203125 -19.84375 C 17.203125 -21.195312 16.738281 -22.160156 15.8125 -22.734375 C 14.882812 -23.304688 13.441406 -23.59375 11.484375 -23.59375 L 9.65625 -23.59375 Z M 9.65625 -10.953125 L 9.65625 0 L 3.59375 0 L 3.59375 -28.5625 L 11.921875 -28.5625 C 15.796875 -28.5625 18.664062 -27.851562 20.53125 -26.4375 C 22.394531 -25.019531 23.328125 -22.875 23.328125 -20 C 23.328125 -18.320312 22.863281 -16.828125 21.9375 -15.515625 C 21.007812 -14.210938 19.703125 -13.1875 18.015625 -12.4375 C 22.304688 -6.019531 25.101562 -1.875 26.40625 0 L 19.6875 0 L 12.875 -10.953125 Z M 9.65625 -10.953125 "/></g></g></g><g fill="#ffffff" fill-opacity="1"><g transform="translate(192.143399, 230.249985)"><g><path d="M 29.515625 -14.3125 C 29.515625 -9.59375 28.34375 -5.960938 26 -3.421875 C 23.65625 -0.878906 20.296875 0.390625 15.921875 0.390625 C 11.546875 0.390625 8.1875 -0.878906 5.84375 -3.421875 C 3.5 -5.960938 2.328125 -9.609375 2.328125 -14.359375 C 2.328125 -19.109375 3.5 -22.734375 5.84375 -25.234375 C 8.195312 -27.742188 11.566406 -29 15.953125 -29 C 20.347656 -29 23.707031 -27.734375 26.03125 -25.203125 C 28.351562 -22.679688 29.515625 -19.050781 29.515625 -14.3125 Z M 8.671875 -14.3125 C 8.671875 -11.125 9.273438 -8.722656 10.484375 -7.109375 C 11.703125 -5.492188 13.515625 -4.6875 15.921875 -4.6875 C 20.753906 -4.6875 23.171875 -7.894531 23.171875 -14.3125 C 23.171875 -20.75 20.765625 -23.96875 15.953125 -23.96875 C 13.546875 -23.96875 11.726562 -23.15625 10.5 -21.53125 C 9.28125 -19.914062 8.671875 -17.507812 8.671875 -14.3125 Z M 8.671875 -14.3125 "/></g></g></g><g fill="#ffffff" fill-opacity="1"><g transform="translate(223.980463, 230.249985)"><g/></g></g></svg>